<svg width="35" height="31" viewBox="0 0 35 31" fill="none" xmlns="http://www.w3.org/2000/svg">
<path d="M17.844 -6.85808e-06H10.444C10.3024 -0.00851745 10.1632 0.0392558 10.0566 0.132897C9.95006 0.226539 9.88479 0.358469 9.87502 0.499993V4.009H1.34402C1.20248 4.00075 1.06339 4.04862 0.956887 4.14221C0.850383 4.23579 0.785043 4.36757 0.775024 4.509L0.775024 29.579C0.784789 29.7205 0.850055 29.8525 0.956619 29.9461C1.06318 30.0397 1.20242 30.0875 1.34402 30.079H17.844C17.9856 30.0875 18.1249 30.0397 18.2314 29.9461C18.338 29.8525 18.4033 29.7205 18.413 29.579V0.501C18.4035 0.359297 18.3384 0.227117 18.2318 0.133263C18.1252 0.03941 17.9858 -0.00850923 17.844 -6.85808e-06ZM17.275 26.068H11.017V25.068H17.275V26.068ZM1.91302 7.52001H9.87502V22.559H1.91302V7.52001ZM17.275 5.514H11.017V4.014H17.275V5.514ZM1.91302 23.562H9.87502V25.062H1.91302V23.562ZM11.013 24.062V6.51699H17.275V24.063L11.013 24.062ZM17.275 1.00201V3.00799H11.017V1.00201H17.275ZM9.87502 5.01299V6.51299H1.91302V5.01299H9.87502ZM1.91302 26.068H9.87502V29.079H1.91302V26.068ZM11.013 29.076V27.071H17.275V29.079L11.013 29.076Z" fill="#FF5A3C"/>
<path d="M34.8951 27.4457L28.0681 4.38473C28.0471 4.31826 28.0127 4.25675 27.9672 4.20397C27.9216 4.15119 27.8658 4.10825 27.8031 4.07772C27.6692 4.01048 27.516 3.99244 27.3701 4.02673L18.8361 6.03274C18.7688 6.0445 18.7045 6.06995 18.6474 6.10751C18.5903 6.14507 18.5415 6.19392 18.504 6.25109C18.4665 6.30826 18.4411 6.37251 18.4295 6.43987C18.4178 6.50723 18.4201 6.57627 18.4361 6.64272L25.2631 29.7037C25.2844 29.7701 25.3188 29.8315 25.3643 29.8842C25.4099 29.937 25.4656 29.98 25.5281 30.0107C25.662 30.0781 25.8154 30.0958 25.9611 30.0607L34.4951 28.0557C34.5625 28.044 34.6267 28.0185 34.6838 27.9809C34.7409 27.9434 34.7897 27.8945 34.8272 27.8374C34.8647 27.7802 34.8901 27.7159 34.9018 27.6486C34.9134 27.5812 34.9112 27.5122 34.8951 27.4457ZM20.5821 9.93472L28.0181 8.18774L28.2851 9.08773L20.8501 10.8367L20.5821 9.93472ZM28.5721 10.0627L31.8721 21.2167L24.4401 22.9637L21.1401 11.8097L28.5721 10.0627ZM32.1621 22.1867L32.7451 24.1537L25.3091 25.9007L24.7291 23.9337L32.1621 22.1867ZM27.1111 5.12573L27.7301 7.21874L20.2951 8.96471L19.6761 6.87273L27.1111 5.12573ZM26.2111 28.9637L25.5921 26.8707L33.0271 25.1237L33.6461 27.2157L26.2111 28.9637Z" fill="#FF5A3C"/>
<path d="M8.17503 9.02441H3.62003C3.47842 9.0159 3.33918 9.06364 3.23262 9.15728C3.12606 9.25092 3.06079 9.38288 3.05103 9.52441V13.5344C3.06104 13.6758 3.12638 13.8076 3.23289 13.9012C3.33939 13.9948 3.47848 14.0426 3.62003 14.0344H8.17503C8.31657 14.0426 8.45566 13.9948 8.56216 13.9012C8.66867 13.8076 8.73401 13.6758 8.74403 13.5344V9.52441C8.73426 9.38288 8.66899 9.25092 8.56243 9.15728C8.45587 9.06364 8.31663 9.0159 8.17503 9.02441ZM7.60603 13.0344H4.18903V10.0264H7.60303L7.60603 13.0344Z" fill="#FF5A3C"/>
</svg>
