<svg width="38" height="35" viewBox="0 0 38 35" fill="none" xmlns="http://www.w3.org/2000/svg">
<path d="M37.3 19.5728C37.1584 18.6513 36.7226 17.8003 36.0575 17.147C35.3925 16.4936 34.5339 16.073 33.61 15.9478V14.8358C33.6436 13.3972 33.1058 12.004 32.1143 10.9611C31.1228 9.91827 29.7584 9.31081 28.32 9.27178C26.912 9.31605 25.5755 9.90253 24.5896 10.9087C23.6037 11.915 23.0445 13.2632 23.029 14.6718H23.065L23.029 14.6778V26.7268C23.0846 28.5183 22.428 30.2589 21.2029 31.5673C19.9779 32.8757 18.2843 33.6454 16.493 33.7078C14.7021 33.6444 13.0093 32.8744 11.7846 31.5661C10.56 30.2579 9.90321 28.518 9.958 26.7268V25.6868C10.858 25.6868 11.825 25.0438 11.825 23.2408V21.7028C13.7139 21.2907 15.412 20.2618 16.6516 18.7783C17.8913 17.2947 18.6021 15.4408 18.672 13.5088V12.2338H17.428L17.402 4.27581C17.3926 3.55606 17.1312 2.86236 16.6633 2.31536C16.1954 1.76836 15.5506 1.40264 14.841 1.28179C14.6823 0.818486 14.3477 0.43624 13.9094 0.217677C13.4712 -0.000886083 12.9645 -0.0382069 12.499 0.113795C12.269 0.185383 12.0555 0.30194 11.871 0.456691C11.6864 0.611442 11.5344 0.801316 11.4238 1.01528C11.3131 1.22925 11.2461 1.46304 11.2266 1.70312C11.2071 1.9432 11.2354 2.18478 11.31 2.41381C11.4687 2.87712 11.8033 3.25937 12.2416 3.47793C12.6798 3.69649 13.1865 3.73381 13.652 3.58181C13.9085 3.50052 14.1442 3.36403 14.3423 3.18194C14.5405 2.99985 14.6964 2.77657 14.799 2.5278C15.1843 2.63281 15.525 2.86035 15.7696 3.17605C16.0143 3.49175 16.1495 3.87846 16.155 4.2778L16.183 12.2328H14.938V13.5258C14.9079 14.5695 14.5437 15.576 13.8989 16.3972C13.2541 17.2184 12.3627 17.811 11.356 18.0878C10.241 18.4348 9.04696 18.4348 7.932 18.0878C6.92639 17.81 6.03643 17.2169 5.39292 16.3958C4.74942 15.5746 4.38632 14.5687 4.357 13.5258V12.2328H2.49V4.28381C2.49382 3.8786 2.63137 3.48598 2.88129 3.16699C3.1312 2.848 3.47948 2.62048 3.872 2.5198C4.06012 2.97637 4.41981 3.34094 4.87379 3.53521C5.32777 3.72948 5.83984 3.73795 6.3 3.5588C6.52783 3.47322 6.73634 3.34313 6.91336 3.17611C7.09038 3.00909 7.23236 2.8085 7.33103 2.58602C7.42971 2.36355 7.48308 2.12366 7.48806 1.88034C7.49303 1.63701 7.4495 1.39511 7.36 1.16879C7.17206 0.711061 6.81185 0.345494 6.35696 0.150783C5.90208 -0.0439287 5.38891 -0.0521882 4.928 0.127803C4.67123 0.225742 4.43939 0.379413 4.24918 0.577754C4.05896 0.776095 3.91512 1.01417 3.828 1.27481C3.11111 1.38956 2.45797 1.75433 1.98429 2.30453C1.5106 2.85473 1.24693 3.55481 1.24 4.28079V12.2298H0V13.5018C0.0685904 15.4349 0.778788 17.2902 2.01857 18.7749C3.25835 20.2597 4.95714 21.2895 6.847 21.7018V23.2398C6.847 25.0398 7.812 25.6858 8.714 25.6858V26.7298C8.66263 28.8477 9.45246 30.8996 10.9106 32.4365C12.3687 33.9733 14.3764 34.8699 16.494 34.9298C18.6116 34.8696 20.6192 33.973 22.0775 32.4362C23.5357 30.8995 24.3258 28.8477 24.275 26.7298V14.7058C24.2764 13.6179 24.6982 12.5725 25.4521 11.7882C26.2061 11.0038 27.2339 10.5412 28.321 10.4968C29.4321 10.5388 30.4814 11.019 31.2394 11.8325C31.9974 12.646 32.4025 13.7265 32.366 14.8378V15.9478C31.8047 16.0221 31.2635 16.2066 30.7738 16.4909C30.2841 16.7751 29.8555 17.1535 29.5126 17.6041C29.1697 18.0547 28.9193 18.5687 28.7759 19.1165C28.6325 19.6643 28.5989 20.235 28.677 20.7958C28.8542 21.929 29.4725 22.9462 30.3968 23.6253C31.3212 24.3044 32.4766 24.5904 33.611 24.4208C34.1723 24.3465 34.7135 24.162 35.2032 23.8777C35.6929 23.5935 36.1215 23.2151 36.4644 22.7645C36.8073 22.3139 37.0577 21.7999 37.2011 21.2521C37.3445 20.7044 37.3781 20.1336 37.3 19.5728ZM13.07 2.4458C12.9494 2.44363 12.8321 2.40587 12.7329 2.33728C12.6337 2.26868 12.557 2.1723 12.5124 2.06024C12.4678 1.94818 12.4573 1.82543 12.4822 1.70742C12.5071 1.58941 12.5664 1.48142 12.6525 1.39697C12.7386 1.31252 12.8477 1.25538 12.9662 1.23275C13.0847 1.21013 13.2072 1.22302 13.3184 1.2698C13.4295 1.31658 13.5244 1.39517 13.5911 1.49569C13.6577 1.59621 13.6932 1.71419 13.693 1.8348C13.6923 1.91578 13.6757 1.99585 13.6441 2.0704C13.6125 2.14495 13.5665 2.21253 13.5087 2.26928C13.4509 2.32603 13.3825 2.37083 13.3074 2.40112C13.2323 2.43141 13.152 2.44659 13.071 2.4458H13.07ZM5.6 1.2228C5.72055 1.22497 5.83777 1.26268 5.93696 1.33123C6.03615 1.39978 6.11287 1.49612 6.15751 1.60812C6.20215 1.72012 6.21271 1.8428 6.18787 1.96078C6.16303 2.07876 6.10389 2.1868 6.01788 2.2713C5.93187 2.35579 5.82281 2.41299 5.70441 2.43573C5.586 2.45846 5.46352 2.4457 5.35233 2.39907C5.24114 2.35245 5.1462 2.27403 5.07943 2.17364C5.01265 2.07325 4.97702 1.95537 4.977 1.8348C4.97765 1.75369 4.99429 1.67352 5.02597 1.59884C5.05764 1.52417 5.10373 1.45647 5.1616 1.39962C5.21946 1.34278 5.28797 1.29788 5.36319 1.26754C5.43842 1.2372 5.51889 1.22201 5.6 1.2228ZM1.245 13.5018V13.4528H3.112V13.5228C3.1423 14.8269 3.59028 16.0869 4.39006 17.1175C5.18984 18.148 6.2992 18.8947 7.555 19.2478C8.91675 19.6718 10.3752 19.6718 11.737 19.2478C12.9934 18.8954 14.1035 18.149 14.9039 17.1183C15.7043 16.0877 16.1527 14.8274 16.183 13.5228V13.4528H17.428V13.5018C17.3525 15.2384 16.6793 16.8956 15.5223 18.1929C14.3654 19.4902 12.7957 20.3479 11.079 20.6208C10.2145 20.7909 9.32984 20.8337 8.453 20.7478C8.16469 20.7196 7.87799 20.6769 7.594 20.6198C5.87731 20.3473 4.30756 19.4898 3.15054 18.1927C1.99352 16.8955 1.32035 15.2384 1.245 13.5018ZM8.714 24.4598C8.154 24.4598 8.092 23.6038 8.092 23.2368V21.9368C8.141 21.9438 8.192 21.9458 8.243 21.9508C8.294 21.9558 8.367 21.9628 8.43 21.9678C8.724 21.9938 9.021 22.0108 9.32 22.0108H9.351C9.651 22.0108 9.951 21.9938 10.239 21.9678C10.301 21.9628 10.367 21.9578 10.431 21.9508C10.495 21.9438 10.531 21.9438 10.581 21.9368V23.2368C10.581 23.6038 10.518 24.4598 9.958 24.4598H8.714ZM32.989 23.2368C32.3866 23.2262 31.8007 23.0378 31.3049 22.6953C30.8092 22.3528 30.4256 21.8716 30.2025 21.3119C29.9793 20.7522 29.9265 20.1391 30.0506 19.5494C30.1747 18.9598 30.4702 18.42 30.9 17.9977C31.3299 17.5755 31.8749 17.2896 32.4666 17.1761C33.0583 17.0625 33.6705 17.1263 34.2261 17.3594C34.7817 17.5925 35.2561 17.9846 35.5896 18.4864C35.9232 18.9881 36.1011 19.5773 36.101 20.1798C36.0936 20.9978 35.7616 21.7794 35.178 22.3527C34.5944 22.926 33.807 23.244 32.989 23.2368Z" fill="#FF5A3C"/>
<path d="M32.989 18.3443C32.6275 18.3506 32.276 18.4636 31.9784 18.669C31.6809 18.8744 31.4507 19.1632 31.3167 19.499C31.1827 19.8348 31.1509 20.2027 31.2253 20.5565C31.2997 20.9103 31.4769 21.2343 31.7348 21.4877C31.9926 21.7411 32.3196 21.9128 32.6746 21.981C33.0297 22.0493 33.397 22.0111 33.7305 21.8713C34.0639 21.7316 34.3486 21.4964 34.5489 21.1954C34.7491 20.8943 34.856 20.5409 34.856 20.1793C34.8539 19.9362 34.804 19.6959 34.709 19.4721C34.6141 19.2484 34.476 19.0455 34.3026 18.8751C34.1292 18.7047 33.924 18.5701 33.6986 18.479C33.4732 18.388 33.2321 18.3422 32.989 18.3443ZM32.989 20.7903C32.8684 20.7883 32.751 20.7507 32.6517 20.6823C32.5524 20.6138 32.4755 20.5174 32.4307 20.4054C32.3859 20.2934 32.3753 20.1706 32.4001 20.0525C32.4249 19.9345 32.4841 19.8263 32.5702 19.7418C32.6562 19.6572 32.7654 19.6 32.8839 19.5773C33.0024 19.5546 33.125 19.5674 33.2362 19.6142C33.3474 19.6609 33.4423 19.7395 33.509 19.8401C33.5757 19.9406 33.6112 20.0586 33.611 20.1793C33.6084 20.3421 33.5415 20.4972 33.425 20.6109C33.3085 20.7246 33.1518 20.7876 32.989 20.7863V20.7903Z" fill="#FF5A3C"/>
</svg>
