<svg width="31" height="31" viewBox="0 0 31 31" fill="none" xmlns="http://www.w3.org/2000/svg">
<path d="M30.5388 14.6453L16.0388 0.26828C15.8688 0.10016 15.6394 0.00585938 15.4003 0.00585938C15.1612 0.00585938 14.9318 0.10016 14.7618 0.26828L0.264804 14.6453C0.137776 14.7692 0.0508163 14.9283 0.0151631 15.1021C-0.02049 15.2759 -0.0031981 15.4564 0.0648043 15.6203C0.133485 15.7847 0.249397 15.9249 0.397863 16.0234C0.546328 16.1218 0.720668 16.174 0.898804 16.1733H3.8668V29.6553C3.86813 29.8931 3.96353 30.1207 4.13217 30.2885C4.30081 30.4562 4.52897 30.5503 4.7668 30.5503H26.0338C26.2716 30.5503 26.4998 30.4562 26.6684 30.2885C26.8371 30.1207 26.9325 29.8931 26.9338 29.6553V16.1683H29.9008C30.0788 16.1688 30.2529 16.1165 30.4012 16.0181C30.5494 15.9197 30.6652 15.7795 30.7338 15.6153C30.8022 15.4518 30.8201 15.2717 30.7854 15.098C30.7506 14.9243 30.6648 14.7649 30.5388 14.6403V14.6453ZM26.0388 14.3833C25.801 14.3833 25.5728 14.4774 25.4042 14.6451C25.2355 14.8128 25.1401 15.0405 25.1388 15.2783V28.7553H5.6708V15.2733C5.66948 15.0355 5.57408 14.8078 5.40544 14.6401C5.2368 14.4724 5.00864 14.3783 4.7708 14.3783H3.0808L15.4008 2.16129L27.7208 14.3783L26.0388 14.3833Z" fill="#FF5A3C"/>
<path d="M9.66571 19.1072V23.5282L8.00071 25.1832C7.91768 25.266 7.8518 25.3643 7.80686 25.4726C7.76191 25.5809 7.73877 25.697 7.73877 25.8142C7.73877 25.9314 7.76191 26.0475 7.80686 26.1558C7.8518 26.2641 7.91768 26.3624 8.00071 26.4452C8.17094 26.6128 8.40028 26.7068 8.63921 26.7068C8.87813 26.7068 9.10747 26.6128 9.27771 26.4452L10.9457 24.7902H15.4007C16.9148 24.7947 18.3689 24.1985 19.444 23.1324C20.5191 22.0663 21.1275 20.6173 21.1357 19.1032V14.3102C21.1357 14.0715 21.0409 13.8426 20.8721 13.6738C20.7033 13.505 20.4744 13.4102 20.2357 13.4102H15.4007C13.8863 13.4057 12.432 14.002 11.3567 15.0683C10.2814 16.1346 9.67291 17.5839 9.66471 19.0982L9.66571 19.1072ZM19.3317 19.1072C19.3299 19.6214 19.2267 20.1301 19.0282 20.6044C18.8297 21.0787 18.5397 21.5092 18.1747 21.8714C17.8098 22.2336 17.377 22.5203 16.9012 22.7152C16.4254 22.9101 15.9159 23.0093 15.4017 23.0072H12.7467L16.0397 19.7422C16.1233 19.6594 16.1897 19.5609 16.235 19.4524C16.2803 19.3438 16.3036 19.2273 16.3036 19.1097C16.3036 18.9921 16.2803 18.8756 16.235 18.767C16.1897 18.6585 16.1233 18.56 16.0397 18.4772C15.8699 18.3091 15.6406 18.2149 15.4017 18.2149C15.1628 18.2149 14.9335 18.3091 14.7637 18.4772L11.4707 21.7422V19.1102C11.4725 18.5959 11.5757 18.0871 11.7743 17.6127C11.9729 17.1384 12.263 16.7078 12.628 16.3456C12.9931 15.9834 13.426 15.6967 13.9019 15.5019C14.3778 15.3071 14.8875 15.208 15.4017 15.2102H19.3317V19.1072Z" fill="#FF5A3C"/>
</svg>
