<svg width="35" height="38" viewBox="0 0 35 38" fill="none" xmlns="http://www.w3.org/2000/svg">
<path d="M28.4939 0C26.9857 0.0137292 25.5448 0.625989 24.4881 1.70206C23.4313 2.77813 22.8453 4.22987 22.8589 5.73801V8.77802H9.48488V5.73801C9.47636 5.19136 9.57668 4.6485 9.77998 4.14099C9.98328 3.63349 10.2855 3.1715 10.6691 2.78192C11.0526 2.39234 11.5099 2.08295 12.0141 1.87177C12.5184 1.66058 13.0597 1.55182 13.6064 1.55182C14.1531 1.55182 14.6943 1.66058 15.1986 1.87177C15.7029 2.08295 16.1601 2.39234 16.5437 2.78192C16.9272 3.1715 17.2295 3.63349 17.4328 4.14099C17.6361 4.6485 17.7364 5.19136 17.7279 5.73801C17.7279 5.93878 17.8076 6.13132 17.9496 6.27328C18.0916 6.41525 18.2841 6.49503 18.4849 6.49503C18.6856 6.49503 18.8782 6.41525 19.0202 6.27328C19.1621 6.13132 19.2419 5.93878 19.2419 5.73801C19.2518 4.99163 19.1134 4.2507 18.8346 3.55826C18.5559 2.86581 18.1424 2.23564 17.6181 1.70432C17.0938 1.17299 16.4692 0.751113 15.7805 0.463165C15.0918 0.175217 14.3528 0.026947 13.6064 0.026947C12.8599 0.026947 12.1209 0.175217 11.4322 0.463165C10.7436 0.751113 10.119 1.17299 9.59467 1.70432C9.07038 2.23564 8.65685 2.86581 8.37811 3.55826C8.09936 4.2507 7.96093 4.99163 7.97088 5.73801V25.222C7.96521 25.3256 7.9805 25.4292 8.01583 25.5267C8.05115 25.6242 8.10579 25.7136 8.17646 25.7895C8.24714 25.8654 8.3324 25.9263 8.42715 25.9685C8.5219 26.0107 8.62418 26.0333 8.72788 26.035C8.82836 26.0346 8.92777 26.0143 9.02036 25.9753C9.11294 25.9362 9.19686 25.8792 9.26726 25.8075C9.33766 25.7358 9.39314 25.6508 9.43049 25.5575C9.46785 25.4642 9.48633 25.3645 9.48488 25.264V23.337H22.9009V25.264C22.9009 25.4648 22.9806 25.6573 23.1226 25.7993C23.2646 25.9413 23.4571 26.021 23.6579 26.021C23.8586 26.021 24.0512 25.9413 24.1932 25.7993C24.3351 25.6573 24.4149 25.4648 24.4149 25.264V5.73801C24.4149 4.65062 24.8468 3.60777 25.6157 2.83887C26.3846 2.06997 27.4275 1.638 28.5149 1.638C29.6023 1.638 30.6451 2.06997 31.414 2.83887C32.1829 3.60777 32.6149 4.65062 32.6149 5.73801C32.6149 5.93878 32.6946 6.13132 32.8366 6.27328C32.9786 6.41525 33.1711 6.49503 33.3719 6.49503C33.5726 6.49503 33.7652 6.41525 33.9072 6.27328C34.0491 6.13132 34.1289 5.93878 34.1289 5.73801C34.1422 4.22995 33.5561 2.77834 32.4994 1.70233C31.4427 0.626321 30.0019 0.0139935 28.4939 0ZM22.9009 21.71H9.48488V18.97H22.9009V21.71ZM22.9009 17.428H9.48488V14.688H22.9009V17.428ZM22.9009 13.06H9.48488V10.32H22.9009V13.06Z" fill="#FF5A3C"/>
<path d="M32.2371 29.0323C32.1999 28.9376 32.1435 28.8518 32.0713 28.7802C31.9991 28.7086 31.9127 28.6529 31.8178 28.6165C31.7228 28.5802 31.6213 28.5641 31.5198 28.5692C31.4182 28.5744 31.3189 28.6006 31.2281 28.6463C27.4431 30.3163 25.5931 29.5033 23.6161 28.6463C21.5971 27.7903 19.5371 26.8913 15.8781 28.6463C12.0931 30.3163 10.2421 29.5033 8.26606 28.6463C6.24706 27.7903 4.14406 26.8913 0.486064 28.6463C0.303117 28.7363 0.16193 28.8934 0.0918932 29.0849C0.0218562 29.2764 0.0283646 29.4875 0.110064 29.6743C0.193093 29.8589 0.345905 30.0031 0.535027 30.0752C0.724148 30.1474 0.934162 30.1417 1.11906 30.0593C2.11465 29.4961 3.24048 29.2037 4.3843 29.2112C5.52812 29.2188 6.64999 29.526 7.63806 30.1023C8.96159 30.7579 10.4099 31.123 11.8861 31.1733C13.4753 31.1274 15.037 30.7478 16.4701 30.0593C17.4655 29.4962 18.5912 29.2038 19.7348 29.2114C20.8784 29.2189 22.0001 29.5261 22.9881 30.1023C24.3116 30.7579 25.7599 31.123 27.2361 31.1733C28.8253 31.1274 30.387 30.7478 31.8201 30.0593C32.0072 29.9734 32.1546 29.8192 32.2321 29.6284C32.3096 29.4376 32.3113 29.2244 32.2371 29.0323Z" fill="#FF5A3C"/>
<path d="M32.195 34.9412C32.1577 34.8466 32.1012 34.7609 32.029 34.6894C31.9567 34.6179 31.8704 34.5623 31.7754 34.5261C31.6805 34.4898 31.579 34.4738 31.4775 34.479C31.376 34.4842 31.2767 34.5105 31.186 34.5562C27.401 36.2262 25.551 35.4122 23.574 34.5562C21.555 33.6992 19.495 32.8002 15.836 34.5562C12.051 36.2262 10.2 35.4122 8.22397 34.5562C6.20497 33.6992 4.14397 32.8002 0.442973 34.5562C0.259743 34.6456 0.118138 34.8024 0.0477077 34.9938C-0.0227226 35.1851 -0.0165371 35.3963 0.064973 35.5832C0.160032 35.7674 0.320741 35.9093 0.515341 35.9808C0.70994 36.0522 0.92427 36.0481 1.11597 35.9692C2.11151 35.4059 3.23727 35.1134 4.38107 35.1208C5.52488 35.1282 6.64678 35.4352 7.63497 36.0112C8.9585 36.6668 10.4068 37.0319 11.883 37.0822C13.472 37.0362 15.0338 36.657 16.467 35.9692C17.4623 35.4059 18.5879 35.1134 19.7316 35.1208C20.8752 35.1281 21.997 35.4352 22.985 36.0112C24.3085 36.6668 25.7568 37.0319 27.233 37.0822C28.822 37.0362 30.3838 36.657 31.817 35.9692C31.911 35.9285 31.9958 35.8692 32.0661 35.7947C32.1365 35.7203 32.191 35.6324 32.2264 35.5362C32.2617 35.4401 32.2772 35.3378 32.2718 35.2355C32.2664 35.1332 32.2402 35.0331 32.195 34.9412Z" fill="#FF5A3C"/>
</svg>
