<svg width="29" height="34" viewBox="0 0 29 34" fill="none" xmlns="http://www.w3.org/2000/svg">
<path d="M27.7758 5.849C23.115 4.52979 18.6504 2.59614 14.4998 0.098999C14.3927 0.0342357 14.2699 0 14.1448 0C14.0197 0 13.8969 0.0342357 13.7898 0.098999C9.6474 2.61282 5.18022 4.54746 0.512799 5.849C0.36401 5.89179 0.233316 5.98212 0.140683 6.10617C0.0480505 6.23022 -0.00142925 6.38119 -0.000201241 6.53601V13.816C-0.0415038 16.6537 0.488704 19.4707 1.55884 22.0993C2.62898 24.7278 4.21716 27.1141 6.2288 29.116C9.2878 32.176 12.8508 33.869 14.1448 33.869C15.4388 33.869 19.0018 32.176 22.0608 29.116C24.0721 27.1139 25.6599 24.7275 26.7299 22.099C27.7999 19.4705 28.33 16.6536 28.2888 13.816V6.53601C28.29 6.38119 28.2405 6.23022 28.1479 6.10617C28.0553 5.98212 27.9246 5.89179 27.7758 5.849ZM26.8938 13.816C26.9336 16.4651 26.4396 19.0952 25.4415 21.5493C24.4433 24.0035 22.9613 26.2317 21.0838 28.101C18.0758 31.11 14.8598 32.447 14.1448 32.447C13.4298 32.447 10.2138 31.11 7.2048 28.101C5.32766 26.2315 3.84597 24.0032 2.84799 21.5491C1.85 19.0949 1.35613 16.465 1.3958 13.816V7.077C5.86479 5.7833 10.1494 3.92178 14.1448 1.53799C18.1484 3.90571 22.4309 5.76632 26.8938 7.077V13.816Z" fill="#FF5A3C"/>
<path d="M7.95976 6.99693C7.9272 6.91137 7.87803 6.83309 7.81509 6.76661C7.75214 6.70014 7.67667 6.64678 7.59302 6.6096C7.50936 6.57242 7.41917 6.55218 7.32765 6.55C7.23614 6.54782 7.14509 6.56378 7.05976 6.59694C5.81276 7.09694 4.53376 7.55992 3.25976 7.96892C3.11686 8.01604 2.99255 8.10724 2.9047 8.22941C2.81684 8.35158 2.76995 8.49846 2.77076 8.64894V11.4009C2.77076 11.5866 2.84451 11.7646 2.97579 11.8959C3.10706 12.0272 3.28511 12.1009 3.47076 12.1009C3.65641 12.1009 3.83446 12.0272 3.96574 11.8959C4.09701 11.7646 4.17076 11.5866 4.17076 11.4009V9.17091C5.31576 8.79291 6.45976 8.37093 7.57776 7.92393C7.74994 7.84998 7.88634 7.71154 7.95773 7.53828C8.02913 7.36502 8.02986 7.17072 7.95976 6.99693Z" fill="#FF5A3C"/>
<path d="M9.28486 7.13242C9.38139 7.13256 9.47685 7.1121 9.56486 7.07243H9.57786C9.74827 6.99388 9.8811 6.85167 9.94784 6.67631C10.0146 6.50094 10.0099 6.30641 9.93486 6.13444C9.89915 6.04934 9.84683 5.97223 9.78095 5.9076C9.71508 5.84297 9.63698 5.79212 9.55121 5.75803C9.46545 5.72395 9.37376 5.70733 9.28149 5.70911C9.18922 5.7109 9.09824 5.73107 9.01386 5.76844L9.00286 5.77345C8.83234 5.85161 8.69931 5.99355 8.63236 6.16877C8.56541 6.34399 8.5699 6.53848 8.64486 6.71043C8.69893 6.83539 8.78828 6.94187 8.90195 7.01682C9.01563 7.09178 9.1487 7.13195 9.28486 7.13242Z" fill="#FF5A3C"/>
<path d="M22.4577 22.9712C22.3812 22.9202 22.2952 22.8849 22.2048 22.8677C22.1144 22.8504 22.0215 22.8515 21.9315 22.8708C21.8415 22.8901 21.7563 22.9272 21.6809 22.98C21.6056 23.0328 21.5416 23.1003 21.4927 23.1782C20.9059 24.0917 20.2342 24.9478 19.4867 25.7352C18.8666 26.3905 18.198 26.9982 17.4867 27.5532C17.3386 27.6697 17.2418 27.8395 17.2171 28.0264C17.1925 28.2132 17.2419 28.4023 17.3547 28.5532C17.4091 28.6276 17.4779 28.6902 17.557 28.7374C17.6361 28.7846 17.7239 28.8154 17.8151 28.828C17.9064 28.8406 17.9992 28.8347 18.0881 28.8107C18.177 28.7867 18.2602 28.745 18.3327 28.6882C19.1003 28.0893 19.822 27.4338 20.4917 26.7272C21.3005 25.8745 22.027 24.9474 22.6617 23.9582C22.7634 23.7997 22.799 23.6076 22.7608 23.4232C22.7227 23.2387 22.6139 23.0765 22.4577 22.9712Z" fill="#FF5A3C"/>
<path d="M15.8648 28.671L15.8248 28.695C15.6641 28.7922 15.5476 28.9482 15.5002 29.1299C15.4528 29.3116 15.4781 29.5047 15.5708 29.668C15.6304 29.7751 15.7173 29.8645 15.8227 29.927C15.9282 29.9895 16.0483 30.023 16.1708 30.024C16.294 30.0228 16.4146 29.9882 16.5198 29.924L16.5668 29.896C16.7272 29.798 16.843 29.6413 16.8895 29.4591C16.9361 29.277 16.9096 29.0839 16.8158 28.921C16.7703 28.8416 16.7094 28.7721 16.6368 28.7164C16.5641 28.6608 16.4812 28.6202 16.3927 28.5969C16.3042 28.5736 16.2119 28.5682 16.1213 28.5809C16.0307 28.5936 15.9435 28.6242 15.8648 28.671Z" fill="#FF5A3C"/>
<path d="M9.38786 15.4816C9.1796 15.2668 8.9303 15.096 8.65477 14.9794C8.37923 14.8627 8.08307 14.8026 7.78386 14.8026C7.48465 14.8026 7.1885 14.8627 6.91296 14.9794C6.63742 15.096 6.38813 15.2668 6.17986 15.4816C5.75417 15.9206 5.51611 16.5081 5.51611 17.1196C5.51611 17.7311 5.75417 18.3186 6.17986 18.7576L10.2999 22.9656C10.5083 23.1804 10.7577 23.3511 11.0333 23.4677C11.3089 23.5842 11.6051 23.6443 11.9044 23.6443C12.2036 23.6443 12.4998 23.5842 12.7754 23.4677C13.051 23.3511 13.3004 23.1804 13.5089 22.9656L22.1089 14.1826C22.5346 13.7436 22.7726 13.1562 22.7726 12.5446C22.7726 11.9331 22.5346 11.3457 22.1089 10.9066C21.9005 10.6918 21.6511 10.521 21.3755 10.4043C21.0999 10.2876 20.8037 10.2275 20.5044 10.2275C20.2051 10.2275 19.9088 10.2876 19.6332 10.4043C19.3576 10.521 19.1082 10.6918 18.8999 10.9066L11.8999 18.0506L9.38786 15.4816ZM19.8879 11.9136C19.968 11.8308 20.0639 11.7649 20.17 11.7199C20.2761 11.675 20.3901 11.6518 20.5054 11.6518C20.6206 11.6518 20.7346 11.675 20.8407 11.7199C20.9468 11.7649 21.0428 11.8308 21.1229 11.9136C21.2869 12.0825 21.3786 12.3087 21.3786 12.5441C21.3786 12.7796 21.2869 13.0057 21.1229 13.1746L12.5229 21.9576C12.4426 22.0402 12.3466 22.1059 12.2406 22.1507C12.1345 22.1955 12.0205 22.2186 11.9054 22.2186C11.7902 22.2186 11.6762 22.1955 11.5702 22.1507C11.4641 22.1059 11.3681 22.0402 11.2879 21.9576L7.16686 17.7506C7.00324 17.5813 6.91178 17.3551 6.91178 17.1196C6.91178 16.8842 7.00324 16.658 7.16686 16.4886C7.24719 16.406 7.34328 16.3403 7.44942 16.2955C7.55557 16.2507 7.66963 16.2276 7.78486 16.2276C7.90009 16.2276 8.01416 16.2507 8.1203 16.2955C8.22645 16.3403 8.32253 16.406 8.40286 16.4886L11.4119 19.5616C11.4759 19.6278 11.5526 19.6804 11.6374 19.7163C11.7222 19.7522 11.8133 19.7707 11.9054 19.7707C11.9974 19.7707 12.0886 19.7522 12.1733 19.7163C12.2581 19.6804 12.3348 19.6278 12.3989 19.5616L19.8879 11.9136Z" fill="#FF5A3C"/>
</svg>
