<svg width="40" height="31" viewBox="0 0 40 31" fill="none" xmlns="http://www.w3.org/2000/svg">
<path d="M37.986 11.156L37.143 10.256L34.183 2.25598C33.9366 1.5964 33.4953 1.02739 32.9179 0.624451C32.3405 0.221515 31.6541 0.00373674 30.95 0H9.81102C9.10588 0.00151649 8.41805 0.218498 7.83968 0.621887C7.26132 1.02528 6.82006 1.59579 6.57502 2.25699L3.65602 10.157L2.44502 11.289C1.92153 11.7369 1.50121 12.2928 1.21293 12.9185C0.924661 13.5443 0.775269 14.225 0.775024 14.914L0.775024 26.575C0.777932 27.4901 1.14317 28.3669 1.79084 29.0134C2.43851 29.66 3.31588 30.0237 4.23102 30.025H6.41302C7.32817 30.0237 8.20554 29.66 8.85321 29.0134C9.50088 28.3669 9.86612 27.4901 9.86902 26.575V24.883H30.375V26.575C30.3779 27.4894 30.7426 28.3656 31.3894 29.012C32.0362 29.6585 32.9126 30.0226 33.827 30.025H36.01C36.925 30.0232 37.8021 29.6593 38.4496 29.0128C39.0972 28.3664 39.4626 27.49 39.466 26.575V14.607C39.4626 13.962 39.3298 13.3243 39.0756 12.7316C38.8214 12.1388 38.4509 11.6031 37.986 11.156ZM8.13302 2.82498C8.2608 2.48334 8.49007 2.18899 8.79002 1.98145C9.08998 1.77391 9.44627 1.66314 9.81102 1.664H30.959C31.3234 1.66497 31.6788 1.77647 31.9784 1.98376C32.278 2.19106 32.5077 2.48438 32.637 2.82498L35.216 9.79199H33.29C33.0948 8.44354 32.4203 7.21053 31.3901 6.31879C30.36 5.42704 29.043 4.93625 27.6805 4.93625C26.318 4.93625 25.0011 5.42704 23.9709 6.31879C22.9407 7.21053 22.2663 8.44354 22.071 9.79199H5.55302L8.13302 2.82498ZM31.604 9.79199H23.741C23.9274 8.88697 24.4203 8.07398 25.1365 7.4902C25.8528 6.90643 26.7485 6.58762 27.6725 6.58762C28.5965 6.58762 29.4923 6.90643 30.2085 7.4902C30.9247 8.07398 31.4177 8.88697 31.604 9.79199ZM8.21602 26.575C8.21365 27.0508 8.02295 27.5064 7.68565 27.842C7.34834 28.1776 6.89186 28.366 6.41602 28.366H4.23102C3.75519 28.366 3.29871 28.1776 2.9614 27.842C2.6241 27.5064 2.4334 27.0508 2.43102 26.575V24.402C2.9736 24.729 3.59765 24.8958 4.23102 24.883H8.21602V26.575ZM37.816 26.575C37.8136 27.0508 37.623 27.5064 37.2856 27.842C36.9483 28.1776 36.4919 28.366 36.016 28.366H33.827C33.3516 28.3647 32.8959 28.1759 32.5588 27.8405C32.2218 27.5052 32.0307 27.0504 32.027 26.575V24.883H36.012C36.6454 24.8959 37.2695 24.7292 37.812 24.402V26.575H37.816ZM36.016 23.224H4.23102C3.75699 23.2272 3.30108 23.042 2.96354 22.7091C2.626 22.3763 2.43446 21.923 2.43102 21.449V14.914C2.43167 14.4626 2.53036 14.0166 2.72029 13.6071C2.91022 13.1975 3.18684 12.8341 3.53102 12.542L3.56402 12.508L4.68802 11.447H35.993L36.787 12.301C36.795 12.318 36.82 12.326 36.828 12.342C37.1355 12.6338 37.3806 12.9851 37.5484 13.3744C37.7161 13.7637 37.8031 14.1831 37.804 14.607V21.449H37.812C37.8081 21.9233 37.6161 22.3767 37.2783 22.7096C36.9404 23.0426 36.4843 23.2279 36.01 23.225L36.016 23.224Z" fill="#FF5A3C"/>
<path d="M11.688 14.7637H5.48799C5.26855 14.7647 5.05846 14.8526 4.90367 15.0082C4.74888 15.1637 4.66198 15.3742 4.66199 15.5937V19.9057C4.66198 20.1251 4.74888 20.3356 4.90367 20.4911C5.05846 20.6467 5.26855 20.7346 5.48799 20.7357H11.688C11.9074 20.7346 12.1175 20.6467 12.2723 20.4911C12.4271 20.3356 12.514 20.1251 12.514 19.9057V15.5937C12.514 15.3742 12.4271 15.1637 12.2723 15.0082C12.1175 14.8526 11.9074 14.7647 11.688 14.7637ZM10.861 19.0767H6.31399V16.4247H10.861V19.0767Z" fill="#FF5A3C"/>
<path d="M34.7531 14.7637H28.5531C28.3335 14.7647 28.1234 14.8526 27.9684 15.0081C27.8135 15.1636 27.7263 15.3741 27.7261 15.5937V19.9057C27.7263 20.1252 27.8135 20.3357 27.9684 20.4912C28.1234 20.6467 28.3335 20.7346 28.5531 20.7357H34.7531C34.9726 20.7346 35.1828 20.6467 35.3377 20.4912C35.4927 20.3357 35.5798 20.1252 35.5801 19.9057V15.5937C35.5798 15.3741 35.4927 15.1636 35.3377 15.0081C35.1828 14.8526 34.9726 14.7647 34.7531 14.7637ZM33.9271 19.0767H29.3751V16.4247H33.9221L33.9271 19.0767Z" fill="#FF5A3C"/>
<path d="M24.113 18.248H16.127C15.9071 18.248 15.6962 18.3354 15.5408 18.4909C15.3853 18.6463 15.298 18.8572 15.298 19.0771C15.298 19.2969 15.3853 19.5078 15.5408 19.6632C15.6962 19.8187 15.9071 19.9061 16.127 19.9061H24.113C24.3328 19.9061 24.5437 19.8187 24.6992 19.6632C24.8546 19.5078 24.942 19.2969 24.942 19.0771C24.942 18.8572 24.8546 18.6463 24.6992 18.4909C24.5437 18.3354 24.3328 18.248 24.113 18.248Z" fill="#FF5A3C"/>
<path d="M24.113 15.6768H16.127C15.9071 15.6768 15.6962 15.7641 15.5408 15.9196C15.3853 16.075 15.298 16.2859 15.298 16.5057C15.298 16.7256 15.3853 16.9365 15.5408 17.0919C15.6962 17.2474 15.9071 17.3347 16.127 17.3347H24.113C24.3328 17.3347 24.5437 17.2474 24.6992 17.0919C24.8546 16.9365 24.942 16.7256 24.942 16.5057C24.942 16.2859 24.8546 16.075 24.6992 15.9196C24.5437 15.7641 24.3328 15.6768 24.113 15.6768Z" fill="#FF5A3C"/>
</svg>
