<svg width="37" height="35" viewBox="0 0 37 35" fill="none" xmlns="http://www.w3.org/2000/svg">
<path d="M30.5 20.7262V14.9472C30.5 12.6782 22.833 12.0732 18.3 12.0732C13.767 12.0732 6.1 12.6782 6.1 14.9472V20.7262C4.47946 20.8229 2.95403 21.5236 1.82476 22.6899C0.695483 23.8562 0.0444009 25.4034 0 27.0262C0.019081 27.6546 0.28674 28.2498 0.744212 28.681C1.20168 29.1122 1.81158 29.3443 2.44 29.3262V32.7752C2.45541 33.2455 2.65652 33.6906 2.99931 34.0129C3.3421 34.3353 3.79864 34.5087 4.269 34.4952H5.489C5.93947 34.5047 6.37692 34.3439 6.71395 34.0449C7.05098 33.7458 7.26277 33.3306 7.307 32.8822C7.896 32.3542 12.045 31.6202 18.297 31.6202C24.549 31.6202 28.697 32.3542 29.287 32.8802C29.3305 33.3282 29.5413 33.7433 29.8773 34.0427C30.2134 34.342 30.65 34.5036 31.1 34.4952H32.32C32.7912 34.5087 33.2485 34.3346 33.5914 34.0112C33.9343 33.6877 34.1349 33.2414 34.149 32.7702V29.3212C34.7774 29.3393 35.3873 29.1072 35.8448 28.676C36.3023 28.2448 36.5699 27.6496 36.589 27.0212C36.5446 25.3984 35.8935 23.8512 34.7642 22.6849C33.635 21.5186 32.1095 20.818 30.489 20.7213L30.5 20.7262ZM18.3 13.2262C25.063 13.2262 29.028 14.3532 29.278 14.9632V20.6953H27.943C28.0149 20.512 28.0528 20.3171 28.055 20.1202V17.2452C28.0406 16.7741 27.84 16.328 27.4971 16.0046C27.1543 15.6812 26.6971 15.507 26.226 15.5202H20.737C20.2657 15.5068 19.8083 15.6808 19.4652 16.0042C19.1221 16.3276 18.9214 16.774 18.907 17.2452V20.1202C18.9092 20.3171 18.9471 20.512 19.019 20.6953H17.575C17.6469 20.512 17.6848 20.3171 17.687 20.1202V17.2452C17.6726 16.774 17.4719 16.3276 17.1288 16.0042C16.7857 15.6808 16.3283 15.5068 15.857 15.5202H10.368C9.89687 15.507 9.43975 15.6812 9.09688 16.0046C8.754 16.328 8.55338 16.7741 8.539 17.2452V20.1202C8.54117 20.3171 8.57912 20.512 8.651 20.6953H7.319V14.9642C7.541 14.3582 11.511 13.2232 18.3 13.2232V13.2262ZM20.13 20.1263V17.2513C20.135 17.0942 20.2019 16.9455 20.3163 16.8378C20.4306 16.73 20.583 16.6719 20.74 16.6762H26.229C26.386 16.6719 26.5384 16.73 26.6527 16.8378C26.7671 16.9455 26.834 17.0942 26.839 17.2513V20.1263C26.834 20.2833 26.7671 20.4319 26.6527 20.5397C26.5384 20.6475 26.386 20.7055 26.229 20.7012H20.737C20.6589 20.7034 20.5812 20.6901 20.5082 20.6621C20.4353 20.6341 20.3685 20.5921 20.3119 20.5383C20.2552 20.4845 20.2097 20.4201 20.178 20.3487C20.1463 20.2773 20.1289 20.2004 20.127 20.1223L20.13 20.1263ZM9.761 20.1263V17.2513C9.76597 17.0942 9.83294 16.9455 9.94726 16.8378C10.0616 16.73 10.214 16.6719 10.371 16.6762H15.86C16.017 16.6719 16.1694 16.73 16.2837 16.8378C16.3981 16.9455 16.465 17.0942 16.47 17.2513V20.1263C16.465 20.2833 16.3981 20.4319 16.2837 20.5397C16.1694 20.6475 16.017 20.7055 15.86 20.7012H10.368C10.2899 20.7034 10.2122 20.6901 10.1392 20.6621C10.0663 20.6341 9.99955 20.5921 9.94288 20.5383C9.88622 20.4845 9.84072 20.4201 9.809 20.3487C9.77728 20.2773 9.75994 20.2004 9.758 20.1223L9.761 20.1263ZM5.489 33.3452H4.269C4.11188 33.3498 3.95937 33.2918 3.84498 33.184C3.7306 33.0762 3.6637 32.9274 3.659 32.7702V29.3212H6.1V32.7702C6.09767 32.8481 6.08002 32.9248 6.04804 32.9958C6.01607 33.0669 5.97041 33.131 5.91366 33.1844C5.85692 33.2378 5.79021 33.2795 5.71734 33.3071C5.64448 33.3347 5.56688 33.3476 5.489 33.3452ZM7.319 31.6322V29.3212H29.275V31.6322C26.515 30.5402 19.898 30.4713 18.297 30.4713C16.696 30.4713 10.079 30.5402 7.319 31.6322ZM32.935 32.7702C32.9303 32.9274 32.8634 33.0762 32.749 33.184C32.6346 33.2918 32.4821 33.3498 32.325 33.3452H31.1C30.9429 33.3498 30.7904 33.2918 30.676 33.184C30.5616 33.0762 30.4947 32.9274 30.49 32.7702V29.3212H32.93L32.935 32.7702ZM34.154 28.1702H2.44C2.12575 28.1794 1.82073 28.0634 1.59196 27.8478C1.3632 27.6321 1.22941 27.3345 1.22 27.0202C1.26444 25.6071 1.86702 24.2692 2.89581 23.2995C3.9246 22.3298 5.29574 21.8072 6.709 21.8463H29.885C31.2983 21.8072 32.6694 22.3298 33.6982 23.2995C34.727 24.2692 35.3296 25.6071 35.374 27.0202C35.3695 27.1759 35.3343 27.3292 35.2706 27.4713C35.2068 27.6134 35.1157 27.7415 35.0024 27.8484C34.8891 27.9553 34.7559 28.0388 34.6103 28.0942C34.4647 28.1496 34.3097 28.1758 34.154 28.1712V28.1702Z" fill="#FF5A3C"/>
<path d="M6.70906 22.9954C5.72514 22.9717 4.76424 23.2949 3.9947 23.9085C3.22517 24.5221 2.69606 25.3868 2.50006 26.3513C2.48837 26.4278 2.49211 26.5058 2.51106 26.5808C2.53001 26.6557 2.56378 26.7262 2.61038 26.7879C2.65699 26.8496 2.71548 26.9013 2.78241 26.94C2.84934 26.9788 2.92334 27.0037 3.00006 27.0134C3.03315 27.0186 3.06658 27.0212 3.10006 27.0214C3.24043 27.0242 3.37735 26.9777 3.48698 26.89C3.59661 26.8023 3.67201 26.6789 3.70006 26.5413C3.84158 25.8531 4.22022 25.2363 4.76994 24.7986C5.31965 24.3609 6.00557 24.1301 6.70806 24.1464C6.78643 24.151 6.86491 24.1395 6.93869 24.1127C7.01247 24.0859 7.07999 24.0443 7.13711 23.9905C7.19423 23.9366 7.23973 23.8717 7.27084 23.7996C7.30195 23.7275 7.31799 23.6498 7.31799 23.5713C7.31799 23.4928 7.30195 23.4152 7.27084 23.3431C7.23973 23.271 7.19423 23.2061 7.13711 23.1522C7.07999 23.0984 7.01247 23.0568 6.93869 23.03C6.86491 23.0032 6.78643 22.9917 6.70806 22.9964L6.70906 22.9954Z" fill="#FF5A3C"/>
<path d="M9.14906 24.1461C9.48596 24.1461 9.75906 23.8887 9.75906 23.5711C9.75906 23.2535 9.48596 22.9961 9.14906 22.9961C8.81217 22.9961 8.53906 23.2535 8.53906 23.5711C8.53906 23.8887 8.81217 24.1461 9.14906 24.1461Z" fill="#FF5A3C"/>
<path d="M25.616 10.3481C25.9302 10.3572 26.2353 10.2412 26.464 10.0256C26.6928 9.80993 26.8266 9.5123 26.836 9.19806V1.78406C26.8313 1.5347 26.7462 1.29352 26.5934 1.09641C26.4406 0.89929 26.2283 0.756784 25.988 0.690063C25.7443 0.614321 25.4833 0.614495 25.2396 0.690582C24.996 0.76667 24.7813 0.915067 24.624 1.11606L23.234 2.95004L21.8 0.579071C21.6863 0.401526 21.5297 0.255423 21.3448 0.154236C21.1598 0.0530488 20.9523 0 20.7415 0C20.5306 0 20.3232 0.0530488 20.1382 0.154236C19.9532 0.255423 19.7967 0.401526 19.683 0.579071L18.3 2.85605L16.919 0.579071C16.8053 0.401526 16.6487 0.255423 16.4638 0.154236C16.2788 0.0530488 16.0713 0 15.8605 0C15.6496 0 15.4422 0.0530488 15.2572 0.154236C15.0723 0.255423 14.9157 0.401526 14.802 0.579071L13.363 2.95004L11.974 1.11606C11.8164 0.915095 11.6015 0.76675 11.3578 0.690674C11.114 0.614597 10.8529 0.614386 10.609 0.690063C10.3687 0.756784 10.1563 0.89929 10.0035 1.09641C9.85075 1.29352 9.76568 1.5347 9.76099 1.78406V9.19507C9.77066 9.50922 9.90453 9.80669 10.1332 10.0223C10.3619 10.2379 10.6668 10.3539 10.981 10.3451L25.616 10.3481ZM10.978 1.78204L12.922 4.34607C12.9823 4.42747 13.0623 4.49225 13.1545 4.53439C13.2466 4.57654 13.3479 4.59467 13.449 4.58707C13.5495 4.58362 13.6477 4.55555 13.7349 4.50534C13.822 4.45513 13.8956 4.38428 13.949 4.29904L15.859 1.14905L17.77 4.30005C17.8308 4.38332 17.9104 4.45107 18.0023 4.49777C18.0942 4.54447 18.1959 4.56882 18.299 4.56882C18.4021 4.56882 18.5037 4.54447 18.5957 4.49777C18.6876 4.45107 18.7672 4.38332 18.828 4.30005L20.739 1.14905L22.649 4.30005C22.7036 4.3842 22.7775 4.45414 22.8645 4.50403C22.9515 4.55392 23.0492 4.58232 23.1494 4.58691C23.2496 4.59151 23.3495 4.57214 23.4407 4.53043C23.5319 4.48871 23.6119 4.42585 23.674 4.34705L25.618 1.78406V9.19507H10.978V1.78204Z" fill="#FF5A3C"/>
<path d="M16.4669 6.89902C16.8038 6.89902 17.0769 6.64159 17.0769 6.32402C17.0769 6.00646 16.8038 5.74902 16.4669 5.74902C16.13 5.74902 15.8569 6.00646 15.8569 6.32402C15.8569 6.64159 16.13 6.89902 16.4669 6.89902Z" fill="#FF5A3C"/>
<path d="M12.808 6.89902C13.1449 6.89902 13.418 6.64159 13.418 6.32402C13.418 6.00646 13.1449 5.74902 12.808 5.74902C12.4711 5.74902 12.198 6.00646 12.198 6.32402C12.198 6.64159 12.4711 6.89902 12.808 6.89902Z" fill="#FF5A3C"/>
<path d="M23.786 6.89902C24.1229 6.89902 24.396 6.64159 24.396 6.32402C24.396 6.00646 24.1229 5.74902 23.786 5.74902C23.4491 5.74902 23.176 6.00646 23.176 6.32402C23.176 6.64159 23.4491 6.89902 23.786 6.89902Z" fill="#FF5A3C"/>
<path d="M20.1271 6.89902C20.464 6.89902 20.7371 6.64159 20.7371 6.32402C20.7371 6.00646 20.464 5.74902 20.1271 5.74902C19.7902 5.74902 19.5171 6.00646 19.5171 6.32402C19.5171 6.64159 19.7902 6.89902 20.1271 6.89902Z" fill="#FF5A3C"/>
</svg>
