<svg width="38" height="39" viewBox="0 0 38 39" fill="none" xmlns="http://www.w3.org/2000/svg">
<path d="M36.936 37.0316H32.742C32.8671 36.8976 32.9787 36.7516 33.075 36.5956C33.2733 36.2755 33.4057 35.919 33.4643 35.5471C33.5229 35.1751 33.5066 34.7952 33.4163 34.4297C33.326 34.0641 33.1636 33.7203 32.9386 33.4184C32.7136 33.1165 32.4305 32.8626 32.106 32.6716L29.616 31.0716L32.216 29.4036C32.523 29.2066 32.7882 28.951 32.9963 28.6514C33.2045 28.3518 33.3515 28.0141 33.429 27.6576C33.5921 26.9356 33.4646 26.1784 33.074 25.5496C32.536 24.6816 31.9 24.5496 29.616 23.0086L32.216 21.3406C32.8334 20.937 33.2686 20.3081 33.4289 19.5881C33.5892 18.8681 33.4618 18.114 33.074 17.4866C32.8232 17.0805 32.4706 16.7469 32.0512 16.5189C31.6319 16.2909 31.1602 16.1763 30.683 16.1866H26.193C26.049 16.1927 25.9128 16.2542 25.8131 16.3583C25.7133 16.4623 25.6576 16.6009 25.6576 16.7451C25.6576 16.8892 25.7133 17.0279 25.8131 17.1319C25.9128 17.236 26.049 17.2975 26.193 17.3036H28.218L24.563 19.6496H21.263V17.3046H24C24.144 17.2985 24.2801 17.237 24.3799 17.1329C24.4797 17.0289 24.5354 16.8903 24.5354 16.7461C24.5354 16.6019 24.4797 16.4634 24.3799 16.3593C24.2801 16.2552 24.144 16.1937 24 16.1876H21.215C21.1222 15.7948 20.9001 15.4447 20.5843 15.1933C20.2686 14.942 19.8776 14.804 19.474 14.8016H19.086V10.4266H21.145C21.259 10.4261 21.3701 10.3901 21.4627 10.3236C21.5554 10.2572 21.625 10.1635 21.662 10.0556C21.7003 9.94734 21.7046 9.82997 21.6744 9.71918C21.6442 9.60839 21.5809 9.50946 21.493 9.43561L13.393 2.6666V0.566589C13.393 0.42072 13.335 0.280818 13.2319 0.177673C13.1288 0.0745283 12.9889 0.0166016 12.843 0.0166016C12.6971 0.0166016 12.5572 0.0745283 12.4541 0.177673C12.3509 0.280818 12.293 0.42072 12.293 0.566589V2.6666L8.94899 5.45959C8.83634 5.55505 8.76538 5.69071 8.75119 5.83768C8.73699 5.98465 8.78069 6.13133 8.87299 6.24658C8.91819 6.30311 8.97423 6.35005 9.03782 6.38461C9.10141 6.41917 9.17126 6.44067 9.24328 6.44785C9.3153 6.45502 9.38802 6.44773 9.45718 6.42639C9.52634 6.40506 9.59053 6.37011 9.64599 6.32361L12.846 3.65359L19.617 9.30859H6.06999L7.93899 7.7496C8.05157 7.65432 8.12251 7.51885 8.13671 7.37204C8.1509 7.22523 8.10723 7.07868 8.01499 6.96359C7.96988 6.90695 7.91387 6.85992 7.85028 6.82529C7.78669 6.79065 7.7168 6.76911 7.64474 6.76193C7.57269 6.75475 7.49992 6.7621 7.43075 6.78351C7.36157 6.80492 7.29739 6.83996 7.24199 6.8866L4.18699 9.43759C4.09934 9.51165 4.03632 9.61065 4.00631 9.72141C3.9763 9.83216 3.98072 9.94941 4.01899 10.0576C4.05609 10.1654 4.12577 10.259 4.21839 10.3255C4.31101 10.3919 4.42199 10.428 4.53599 10.4286H6.59499V12.5186V20.0186C6.59499 20.1645 6.65294 20.3044 6.75608 20.4075C6.85923 20.5106 6.99912 20.5686 7.14499 20.5686C7.29086 20.5686 7.43075 20.5106 7.5339 20.4075C7.63704 20.3044 7.69499 20.1645 7.69499 20.0186V13.0736H17.995V23.5496H7.69299V22.2496C7.69299 22.1037 7.63504 21.9638 7.5319 21.8607C7.42875 21.7575 7.28886 21.6996 7.14299 21.6996C6.99712 21.6996 6.85723 21.7575 6.75408 21.8607C6.65094 21.9638 6.59299 22.1037 6.59299 22.2496V37.0296H0.54899C0.400734 37.0296 0.25855 37.0885 0.153718 37.1933C0.0488847 37.2982 -0.0100098 37.4403 -0.0100098 37.5886C-0.0100098 37.7368 0.0488847 37.879 0.153718 37.9839C0.25855 38.0887 0.400734 38.1476 0.54899 38.1476H36.936C37.0842 38.1476 37.2264 38.0887 37.3313 37.9839C37.4361 37.879 37.495 37.7368 37.495 37.5886C37.495 37.4403 37.4361 37.2982 37.3313 37.1933C37.2264 37.0885 37.0842 37.0296 36.936 37.0296V37.0316ZM14.227 31.5966H11.454V29.9906H14.227V31.5966ZM14.227 28.8726H11.454V27.2656H14.227V28.8726ZM11.454 32.7146H14.227V34.3216H11.454V32.7146ZM14.227 24.6666V26.1496H11.454V24.6686L14.227 24.6666ZM11.454 35.4396H14.227V37.0316H11.454V35.4396ZM15.325 24.6666H17.988V37.0316H15.325V24.6666ZM19.086 24.1086V22.1496H19.474C19.8774 22.1472 20.2684 22.0094 20.5841 21.7583C20.8998 21.5071 21.122 21.1572 21.215 20.7646H22.837C22.2787 21.1905 21.8987 21.8088 21.771 22.4993C21.6433 23.1898 21.7769 23.9032 22.146 24.5006C22.671 25.3476 23.19 25.4216 25.604 27.0416L23 28.7106C22.693 28.9076 22.4278 29.1632 22.2197 29.4628C22.0115 29.7624 21.8645 30.1001 21.787 30.4566C21.6239 31.1783 21.7515 31.9352 22.142 32.5636C22.7 33.4636 23.069 33.3976 28.603 37.0326H19.086V24.1086ZM29.118 34.0576C29.265 33.8184 29.4709 33.621 29.716 33.4841C29.9611 33.3472 30.2372 33.2754 30.518 33.2756C30.8284 33.2755 31.1323 33.3651 31.393 33.5336L31.634 33.6876C32.0037 33.9303 32.2643 34.3075 32.3604 34.7391C32.4566 35.1708 32.3807 35.6229 32.149 35.9996C32.0361 36.1853 31.8873 36.3465 31.7112 36.4738C31.5351 36.6011 31.3353 36.6919 31.1236 36.7408C30.9119 36.7898 30.6925 36.7958 30.4785 36.7587C30.2644 36.7216 30.0599 36.642 29.877 36.5246L29.635 36.3696C29.2657 36.1268 29.0055 35.7497 28.9096 35.3183C28.8136 34.8869 28.8895 34.435 29.121 34.0586L29.118 34.0576ZM29.534 32.3426C28.9754 32.5586 28.503 32.9516 28.189 33.4616C27.8704 33.9743 27.7252 34.576 27.775 35.1776L25.447 33.6836C26.5359 33.1046 27.5849 32.4534 28.587 31.7346L29.534 32.3426ZM32.359 27.4126C32.3125 27.6264 32.2243 27.829 32.0993 28.0086C31.9744 28.1883 31.8153 28.3416 31.631 28.4596C25.151 32.5186 25.3 32.7506 24.471 32.7506C24.1901 32.7508 23.9139 32.6789 23.6688 32.5418C23.4237 32.4047 23.2178 32.207 23.071 31.9676C22.8366 31.5907 22.76 31.1365 22.858 30.7036C22.9045 30.4896 22.9927 30.2869 23.1176 30.1071C23.2425 29.9273 23.4017 29.7738 23.586 29.6556L29.87 25.6236C30.1313 25.4555 30.4353 25.3659 30.746 25.3656C31.0268 25.3653 31.3029 25.437 31.548 25.5739C31.7931 25.7109 31.999 25.9084 32.146 26.1476C32.3804 26.5249 32.4569 26.9793 32.359 27.4126ZM29.773 24.4316C29.6036 24.4978 29.4412 24.5805 29.288 24.6786L26.634 26.3786L25.447 25.6166C26.5362 25.0381 27.5852 24.3869 28.587 23.6676L29.773 24.4316ZM32.146 18.0846C32.3777 18.4613 32.4536 18.9134 32.3574 19.3451C32.2613 19.7767 32.0007 20.1539 31.631 20.3966L25.347 24.4286C25.09 24.5938 24.7917 24.6832 24.4862 24.6865C24.1808 24.6899 23.8805 24.6071 23.62 24.4476L23.59 24.4286L23.577 24.4206C23.3747 24.2871 23.204 24.111 23.077 23.9046C22.8452 23.5279 22.7694 23.0758 22.8656 22.6441C22.9617 22.2125 23.2223 21.8353 23.592 21.5926L29.876 17.5606C30.1371 17.3921 30.4412 17.3025 30.752 17.3026C31.0328 17.3023 31.3089 17.374 31.554 17.511C31.7991 17.6479 32.005 17.8454 32.152 18.0846H32.146ZM19.474 15.9166C19.5667 15.9166 19.6584 15.935 19.744 15.9707C19.8295 16.0065 19.9071 16.0588 19.9722 16.1248C20.0373 16.1907 20.0887 16.269 20.1233 16.3549C20.158 16.4409 20.1752 16.5329 20.174 16.6256V20.3256C20.1752 20.4183 20.158 20.5103 20.1233 20.5963C20.0887 20.6822 20.0373 20.7604 19.9722 20.8264C19.9071 20.8923 19.8295 20.9447 19.744 20.9805C19.6584 21.0162 19.5667 21.0346 19.474 21.0346H19.086V15.9186L19.474 15.9166ZM7.69299 11.9496V10.4186H17.993V11.9496H7.69299ZM7.69299 24.6616H10.356V37.0266H7.69299V24.6616Z" fill="#FF5A3C"/>
</svg>
